<svg id="visual" viewBox="0 0 900 600" width="900" height="600" xmlns="http://www.w3.org/2000/svg" xmlns:xlink="http://www.w3.org/1999/xlink" version="1.1"><rect x="0" y="0" width="900" height="600" fill="#81d5ff"></rect><g transform="translate(460.5532557363372 261.4922545353779)"><path d="M148.3 -172.6C177 -152.6 174.7 -91.5 173.5 -39.3C172.3 12.9 172.3 56.2 160.7 108.3C149.1 160.3 125.9 221.1 82.3 245.2C38.8 269.4 -25.1 256.8 -74.9 228.8C-124.8 200.7 -160.7 157.1 -178.9 110.6C-197 64 -197.5 14.6 -192.5 -37.4C-187.5 -89.4 -177 -143.9 -144 -163.1C-111 -182.3 -55.5 -166.1 2.1 -168.7C59.8 -171.2 119.6 -192.5 148.3 -172.6" fill="#004b90"></path></g></svg>