<svg id="visual" viewBox="0 0 900 600" width="900" height="600" xmlns="http://www.w3.org/2000/svg" xmlnsXlink="http://www.w3.org/1999/xlink" version="1.1"><rect x="0" y="0" width="900" height="600" fill="#81d5ff"></rect><g transform="translate(472.83498340047396 301.10967299413664)"><path d="M117.8 -129.5C158 -106.6 199.6 -74.6 214.3 -31.8C229 11 216.7 64.5 188.9 105.7C161.1 147 117.8 175.9 75.2 179.7C32.6 183.6 -9.4 162.3 -65.1 153.1C-120.8 144 -190.3 147 -228.7 115.2C-267.1 83.4 -274.4 16.9 -258 -40.2C-241.5 -97.2 -201.4 -144.7 -154.5 -166.5C-107.6 -188.2 -53.8 -184.1 -7.5 -175.2C38.8 -166.2 77.6 -152.4 117.8 -129.5" fill="#004b90"></path></g></svg>