<svg id="visual" viewBox="0 0 960 540" width="960" height="540" xmlns="http://www.w3.org/2000/svg" xmlns:xlink="http://www.w3.org/1999/xlink" version="1.1"><rect x="0" y="0" width="960" height="540" fill="#81d5ff"></rect><path d="M0 228L20 229.5C40 231 80 234 120 234C160 234 200 231 240 223.2C280 215.3 320 202.7 360 202.7C400 202.7 440 215.3 480 221.5C520 227.7 560 227.3 600 222.2C640 217 680 207 720 207.8C760 208.7 800 220.3 840 224.5C880 228.7 920 225.3 940 223.7L960 222L960 0L940 0C920 0 880 0 840 0C800 0 760 0 720 0C680 0 640 0 600 0C560 0 520 0 480 0C440 0 400 0 360 0C320 0 280 0 240 0C200 0 160 0 120 0C80 0 40 0 20 0L0 0Z" fill="#81d5ff"></path><path d="M0 187L20 185.5C40 184 80 181 120 182.5C160 184 200 190 240 192.5C280 195 320 194 360 188.7C400 183.3 440 173.7 480 167.7C520 161.7 560 159.3 600 163.5C640 167.7 680 178.3 720 180C760 181.7 800 174.3 840 173.8C880 173.3 920 179.7 940 182.8L960 186L960 0L940 0C920 0 880 0 840 0C800 0 760 0 720 0C680 0 640 0 600 0C560 0 520 0 480 0C440 0 400 0 360 0C320 0 280 0 240 0C200 0 160 0 120 0C80 0 40 0 20 0L0 0Z" fill="#609fc5"></path><path d="M0 142L20 139.5C40 137 80 132 120 129.5C160 127 200 127 240 125.3C280 123.7 320 120.3 360 123.2C400 126 440 135 480 136.7C520 138.3 560 132.7 600 126.8C640 121 680 115 720 117.8C760 120.7 800 132.3 840 131.8C880 131.3 920 118.7 940 112.3L960 106L960 0L940 0C920 0 880 0 840 0C800 0 760 0 720 0C680 0 640 0 600 0C560 0 520 0 480 0C440 0 400 0 360 0C320 0 280 0 240 0C200 0 160 0 120 0C80 0 40 0 20 0L0 0Z" fill="#3f6c8d"></path><path d="M0 97L20 92C40 87 80 77 120 78.3C160 79.7 200 92.3 240 96.5C280 100.7 320 96.3 360 95.7C400 95 440 98 480 96.8C520 95.7 560 90.3 600 88.8C640 87.3 680 89.7 720 88C760 86.3 800 80.7 840 80C880 79.3 920 83.7 940 85.8L960 88L960 0L940 0C920 0 880 0 840 0C800 0 760 0 720 0C680 0 640 0 600 0C560 0 520 0 480 0C440 0 400 0 360 0C320 0 280 0 240 0C200 0 160 0 120 0C80 0 40 0 20 0L0 0Z" fill="#1f3d58"></path><path d="M0 63L20 63.2C40 63.3 80 63.7 120 60.7C160 57.7 200 51.3 240 47.7C280 44 320 43 360 40.8C400 38.7 440 35.3 480 35.8C520 36.3 560 40.7 600 42.2C640 43.7 680 42.3 720 44.7C760 47 800 53 840 51.2C880 49.3 920 39.7 940 34.8L960 30L960 0L940 0C920 0 880 0 840 0C800 0 760 0 720 0C680 0 640 0 600 0C560 0 520 0 480 0C440 0 400 0 360 0C320 0 280 0 240 0C200 0 160 0 120 0C80 0 40 0 20 0L0 0Z" fill="#001427"></path></svg>