<svg id="visual" viewBox="0 0 960 540" width="960" height="540" xmlns="http://www.w3.org/2000/svg" xmlns:xlink="http://www.w3.org/1999/xlink" version="1.1"><rect x="0" y="0" width="960" height="540" fill="#001427"></rect><path d="M0 182L20 183.2C40 184.3 80 186.7 120 186.7C160 186.7 200 184.3 240 178.2C280 172 320 162 360 162.2C400 162.3 440 172.7 480 177.5C520 182.3 560 181.7 600 177.5C640 173.3 680 165.7 720 166.3C760 167 800 176 840 179.2C880 182.3 920 179.7 940 178.3L960 177L960 0L940 0C920 0 880 0 840 0C800 0 760 0 720 0C680 0 640 0 600 0C560 0 520 0 480 0C440 0 400 0 360 0C320 0 280 0 240 0C200 0 160 0 120 0C80 0 40 0 20 0L0 0Z" fill="#001427"></path><path d="M0 149L20 147.8C40 146.7 80 144.3 120 145.5C160 146.7 200 151.3 240 153.3C280 155.3 320 154.7 360 150.5C400 146.3 440 138.7 480 133.8C520 129 560 127 600 130.3C640 133.7 680 142.3 720 143.8C760 145.3 800 139.7 840 139.2C880 138.7 920 143.3 940 145.7L960 148L960 0L940 0C920 0 880 0 840 0C800 0 760 0 720 0C680 0 640 0 600 0C560 0 520 0 480 0C440 0 400 0 360 0C320 0 280 0 240 0C200 0 160 0 120 0C80 0 40 0 20 0L0 0Z" fill="#1f3d58"></path><path d="M0 113L20 111.2C40 109.3 80 105.7 120 103.7C160 101.7 200 101.3 240 99.8C280 98.3 320 95.7 360 98C400 100.3 440 107.7 480 109C520 110.3 560 105.7 600 101C640 96.3 680 91.7 720 94C760 96.3 800 105.7 840 105.3C880 105 920 95 940 90L960 85L960 0L940 0C920 0 880 0 840 0C800 0 760 0 720 0C680 0 640 0 600 0C560 0 520 0 480 0C440 0 400 0 360 0C320 0 280 0 240 0C200 0 160 0 120 0C80 0 40 0 20 0L0 0Z" fill="#3f6c8d"></path><path d="M0 77L20 73C40 69 80 61 120 62.2C160 63.3 200 73.7 240 77.2C280 80.7 320 77.3 360 76.7C400 76 440 78 480 77C520 76 560 72 600 70.8C640 69.7 680 71.3 720 70C760 68.7 800 64.3 840 63.8C880 63.3 920 66.7 940 68.3L960 70L960 0L940 0C920 0 880 0 840 0C800 0 760 0 720 0C680 0 640 0 600 0C560 0 520 0 480 0C440 0 400 0 360 0C320 0 280 0 240 0C200 0 160 0 120 0C80 0 40 0 20 0L0 0Z" fill="#609fc5"></path><path d="M0 50L20 50.2C40 50.3 80 50.7 120 48.3C160 46 200 41 240 38.2C280 35.3 320 34.7 360 32.8C400 31 440 28 480 28.3C520 28.7 560 32.3 600 33.5C640 34.7 680 33.3 720 35.2C760 37 800 42 840 40.7C880 39.3 920 31.7 940 27.8L960 24L960 0L940 0C920 0 880 0 840 0C800 0 760 0 720 0C680 0 640 0 600 0C560 0 520 0 480 0C440 0 400 0 360 0C320 0 280 0 240 0C200 0 160 0 120 0C80 0 40 0 20 0L0 0Z" fill="#81d5ff"></path></svg>